<?xml version="1.0" encoding="UTF-8"?>
<svg width="24px" height="24px" viewBox="0 0 24 24" version="1.1" xmlns="http://www.w3.org/2000/svg">
    <path d="M4,2 L20,2 C21.1045695,2 22,2.8954305 22,4 L22,20 C22,21.1045695 21.1045695,22 20,22 L4,22 C2.8954305,22 2,21.1045695 2,20 L2,4 C2,2.8954305 2.8954305,2 4,2 Z M4,4 L4,20 L20,20 L20,4 L4,4 Z M7,7 L17,7 L17,10 L7,10 L7,7 Z M7,12 L9,12 L9,14 L7,14 L7,12 Z M11,12 L13,12 L13,14 L11,14 L11,12 Z M15,12 L17,12 L17,14 L15,14 L15,12 Z M7,16 L9,16 L9,18 L7,18 L7,16 Z M11,16 L13,16 L13,18 L11,18 L11,16 Z M15,16 L17,16 L17,18 L15,18 L15,16 Z" fill="#1a472a"></path>
</svg>